<?xml version="1.0" encoding="utf-8"?>
<!-- Generator: Adobe Illustrator 22.0.1, SVG Export Plug-In . SVG Version: 6.00 Build 0)  -->
<svg version="1.1" id="Layer_1" xmlns="http://www.w3.org/2000/svg" xmlns:xlink="http://www.w3.org/1999/xlink" x="0px" y="0px"
	 viewBox="0 0 200 100" style="enable-background:new 0 0 200 100;" xml:space="preserve">
<g>
	<g>
		<path d="M32.9,68.5c-0.4,0-0.5-0.1-0.5-0.5c0-7,0-10.5,0-17.5c0-0.3,0.2-0.5,0.5-0.5c0.9,0,1.4,0,2.3,0c0.3,0,0.5,0.2,0.5,0.5
			c0,2.8,0,4.2,0,7c2.6-0.1,4-0.1,6.6-0.3c0-2.8,0-4.2,0-7c0-0.3,0.2-0.5,0.5-0.5c0.9-0.1,1.4-0.1,2.3-0.1c0.3,0,0.5,0.1,0.5,0.4
			c0,7,0,10.5,0,17.5c0,0.4-0.1,0.5-0.5,0.5c-0.9,0.1-1.4,0.1-2.3,0.1c-0.4,0-0.5-0.1-0.5-0.5c0-3,0-4.5,0-7.5
			c-2.6,0.1-4,0.2-6.6,0.3c0,3,0,4.5,0,7.5c0,0.4-0.1,0.5-0.5,0.5C34.3,68.5,33.8,68.5,32.9,68.5z"/>
		<path d="M62.4,66.2c-0.4,0.1-0.5,0-0.7-0.3c-0.6-1.5-0.9-2.2-1.5-3.8c-3,0.4-4.5,0.6-7.5,0.9c-0.6,1.6-0.9,2.5-1.5,4.1
			c-0.2,0.4-0.3,0.4-0.6,0.5c-0.9,0.1-1.4,0.1-2.3,0.2c-0.5,0-0.7-0.1-0.5-0.6c2.8-7.2,4.2-10.9,7-18.2c0.1-0.3,0.3-0.4,0.6-0.5
			c0.9-0.1,1.4-0.2,2.3-0.3c0.4-0.1,0.5,0,0.6,0.4c2.8,6.6,4.2,9.9,6.9,16.5c0.2,0.5,0.1,0.6-0.5,0.7C63.8,66,63.3,66.1,62.4,66.2z
			 M53.9,60c2.1-0.2,3.1-0.4,5.2-0.6c-1-2.6-1.6-3.9-2.6-6.5C55.4,55.7,54.9,57.1,53.9,60z"/>
		<path d="M77.8,63.7c-0.4,0.1-0.4,0.1-0.6-0.3c-2.8-4.6-4.2-6.8-6.9-11.4c0,5,0,7.5,0,12.5c0,0.5,0,0.6-0.5,0.7
			c-0.9,0.1-1.3,0.2-2.2,0.4c-0.5,0.1-0.6,0-0.6-0.5c0-6.9,0-10.4,0-17.3c0-0.6,0-0.7,0.6-0.7c1-0.2,1.4-0.2,2.4-0.4
			c0.4-0.1,0.4,0,0.6,0.3c2.7,4.6,4.1,6.8,6.8,11.4c0-5,0-7.5,0-12.4c0-0.5,0-0.6,0.5-0.7c0.9-0.2,1.3-0.2,2.2-0.4
			c0.6-0.1,0.6,0,0.6,0.5c0,6.9,0,10.4,0,17.3c0,0.6,0,0.7-0.6,0.8C79.2,63.4,78.7,63.5,77.8,63.7z"/>
		<path d="M90.7,45.7c0,6,0,9,0,15c0,0.4-0.1,0.5-0.5,0.6c-0.9,0.2-1.4,0.3-2.4,0.5c-0.3,0.1-0.5,0-0.5-0.4c0-6,0-9,0-15
			c-1.7,0.3-2.5,0.5-4.2,0.8c-0.4,0.1-0.5,0-0.5-0.4c0-0.8,0-1.3,0-2.1c0-0.3,0.2-0.5,0.5-0.6c4.7-0.9,7.1-1.4,11.8-2.4
			c0.4-0.1,0.5,0,0.5,0.4c0,0.8,0,1.3,0,2.1c0,0.4-0.1,0.5-0.5,0.6C93.3,45.2,92.5,45.3,90.7,45.7z"/>
		<path d="M107.5,57.7c-0.4,0.1-0.5,0.1-0.7-0.3c-0.6-1.5-0.9-2.2-1.5-3.7c-3,0.6-4.5,0.9-7.5,1.5c-0.6,1.7-0.9,2.6-1.5,4.3
			c-0.2,0.4-0.3,0.5-0.6,0.5c-0.9,0.2-1.4,0.3-2.3,0.5c-0.5,0.1-0.7,0-0.5-0.5c2.8-7.6,4.2-11.3,7-18.9c0.1-0.3,0.3-0.5,0.6-0.5
			c0.9-0.2,1.4-0.3,2.3-0.5c0.4-0.1,0.5,0,0.6,0.3c2.8,6.4,4.2,9.6,6.9,16c0.2,0.4,0.1,0.6-0.5,0.7C109,57.4,108.5,57.5,107.5,57.7z
			 M99,52.1c2.1-0.4,3.1-0.6,5.2-1.1c-1-2.5-1.6-3.8-2.6-6.3C100.6,47.7,100.1,49.2,99,52.1z"/>
		<path d="M113.2,56.6c-0.8,0.2-0.8,0.1-0.8-0.7c0-6.7,0-10.1,0-16.8c0-0.7,0-0.8,0.8-1c3.4-0.7,5.1-1,8.5-1.6
			c0.6-0.1,0.5,0.1,0.5,0.5c0,0.7,0,1.1,0,1.9c0,0.5,0,0.6-0.5,0.6c-2.4,0.4-3.6,0.7-6,1.1c0,1.8,0,2.7,0,4.6
			c2.3-0.4,3.4-0.7,5.7-1.1c0.5-0.1,0.5,0.1,0.5,0.5c0,0.7,0,1.1,0,1.9c0,0.5,0,0.6-0.5,0.6c-2.3,0.4-3.4,0.6-5.7,1.1c0,2,0,3,0,4.9
			c2.5-0.5,3.8-0.7,6.3-1.2c0.5-0.1,0.5,0.1,0.5,0.5c0,0.7,0,1.1,0,1.9c0,0.4,0,0.6-0.5,0.7C118.5,55.6,116.7,55.9,113.2,56.6z"/>
		<path d="M126.8,54c-0.4,0.1-0.5,0-0.5-0.4c0-7,0-10.5,0-17.5c0-0.3,0.2-0.5,0.5-0.6c0.9-0.2,1.4-0.2,2.3-0.4
			c0.3-0.1,0.5,0.1,0.5,0.4c0,2.8,0,4.2,0,7c2.6-0.4,4-0.6,6.6-1c0-2.8,0-4.2,0-7c0-0.3,0.2-0.5,0.5-0.6c0.9-0.1,1.4-0.2,2.3-0.3
			c0.3,0,0.5,0.1,0.5,0.4c0,7,0,10.5,0,17.5c0,0.4-0.1,0.5-0.5,0.5c-0.9,0.1-1.4,0.2-2.3,0.3c-0.4,0.1-0.5,0-0.5-0.4
			c0-3,0-4.5,0-7.5c-2.6,0.4-4,0.6-6.6,1c0,3,0,4.5,0,7.5c0,0.4-0.1,0.5-0.5,0.6C128.2,53.8,127.7,53.9,126.8,54z"/>
		<path d="M144.5,51.4c-0.8,0.1-0.8,0-0.8-0.8c0-6.7,0-10.1,0-16.8c0-0.7,0-0.8,0.8-0.9c3.4-0.4,5.1-0.6,8.5-0.8
			c0.6,0,0.5,0.2,0.5,0.5c0,0.7,0,1.1,0,1.9c0,0.5,0,0.6-0.5,0.6c-2.4,0.2-3.6,0.3-6,0.6c0,1.8,0,2.7,0,4.6c2.3-0.2,3.4-0.4,5.7-0.5
			c0.5,0,0.5,0.2,0.5,0.5c0,0.7,0,1.1,0,1.9c0,0.5,0,0.6-0.5,0.6c-2.3,0.2-3.4,0.3-5.7,0.5c0,2,0,3,0,4.9c2.5-0.3,3.8-0.4,6.3-0.6
			c0.5,0,0.5,0.1,0.5,0.5c0,0.7,0,1.1,0,1.9c0,0.4,0,0.6-0.5,0.6C149.7,50.9,148,51,144.5,51.4z"/>
		<path d="M158.3,50.2c-0.8,0-0.8-0.1-0.8-0.8c0-6.7,0-10.1,0-16.8c0-0.7,0-0.8,0.8-0.9c3.4-0.2,5.1-0.2,8.5-0.2
			c0.6,0,0.5,0.2,0.5,0.6c0,0.7,0,1.1,0,1.9c0,0.5,0,0.6-0.5,0.6c-2.4,0-3.6,0-6,0.1c0,1.8,0,2.7,0,4.6c2.3-0.1,3.4-0.1,5.7-0.1
			c0.5,0,0.5,0.2,0.5,0.6c0,0.7,0,1.1,0,1.9c0,0.5,0,0.6-0.5,0.6c-2.3,0-3.4,0-5.7,0.1c0,2,0,3,0,4.9c2.5-0.1,3.8-0.1,6.3-0.1
			c0.5,0,0.5,0.1,0.5,0.6c0,0.7,0,1.1,0,1.9c0,0.4,0,0.6-0.5,0.6C163.6,50,161.8,50.1,158.3,50.2z"/>
	</g>
</g>
</svg>
