<?xml version="1.0" encoding="utf-8"?>
<!-- Generator: Adobe Illustrator 22.0.1, SVG Export Plug-In . SVG Version: 6.00 Build 0)  -->
<svg version="1.1" id="Layer_1" xmlns="http://www.w3.org/2000/svg" xmlns:xlink="http://www.w3.org/1999/xlink" x="0px" y="0px"
	 viewBox="0 0 357.3 520.9" style="enable-background:new 0 0 357.3 520.9;" xml:space="preserve">
<style type="text/css">
	.st0{fill:#FFFFFF;stroke:#000000;stroke-miterlimit:10;}
	.st1{fill:none;stroke:#000000;stroke-miterlimit:10;}
</style>
<path class="st0" d="M166.7,47"/>
<g>
	<path class="st1" d="M10.7,49.7C23.2,105,50.3,179.7,116.7,227c27.1,19.3,44.2,22.3,68.7,36.7c45.9,27,101.8,84.8,133.3,223.3"/>
	<path class="st1" d="M25.1,45.2c14,54.4,42.8,125.9,99,178.4c24.3,22.7,35.4,29.9,57.9,47.4c39.5,30.7,92.2,87.1,128.2,218.5"/>
	<path class="st1" d="M39.6,40.8C55,94.2,85.4,163.6,131.5,220.3c21.5,26.5,26.4,37.1,47.2,58.1c33.1,33.5,82.7,89.4,123.1,213.7"/>
	<path class="st1" d="M54,36.3c16.8,52.5,48.4,120.7,84.9,180.7c18.7,30.7,17.5,44,36.4,68.9c27.1,35.6,73.1,91.7,118,208.9"/>
	<path class="st1" d="M68.4,31.9c18.3,51.5,50.2,119.3,77.9,181.8c15.6,35.3,8.8,50.5,25.7,79.6c21.5,37.2,63.5,94,112.9,204.1"/>
	<path class="st1" d="M82.9,27.4c19.7,50.6,51.2,118.2,70.8,182.9c12.1,40,0.6,56.8,15,90.4c16.4,38.4,54,96.3,107.8,199.3"/>
	<path class="st1" d="M97.3,23c21.1,49.6,51.7,117.1,63.8,184c8.1,44.7-7.2,62.9,4.2,101.1c11.9,39.6,44.4,98.6,102.7,194.4"/>
	<path class="st1" d="M111.8,18.6c22.6,48.6,51.6,115.8,56.7,185.1c3.7,49.4-14.5,69.1-6.5,111.9c7.6,40.8,34.9,100.9,97.6,189.6"/>
	<path class="st1" d="M126.2,14.1c24,47.7,51.2,114.2,49.7,186.2c-1.1,53.9-21.4,75.4-17.3,122.6c3.7,42.3,25.3,103.2,92.4,184.8"/>
	<path class="st1" d="M140.7,9.7c25.4,46.7,50.6,112.2,42.7,187.3c-6.2,58.1-27.9,82-28,133.3c-0.1,44.1,15.7,105.5,87.3,180"/>
</g>
</svg>
