<?xml version="1.0" encoding="utf-8"?>
<!-- Generator: Adobe Illustrator 22.0.1, SVG Export Plug-In . SVG Version: 6.00 Build 0)  -->
<svg version="1.1" id="Layer_1" xmlns="http://www.w3.org/2000/svg" xmlns:xlink="http://www.w3.org/1999/xlink" x="0px" y="0px"
	 viewBox="0 0 500 500" style="enable-background:new 0 0 500 500;" xml:space="preserve">
<style type="text/css">
	.st0{fill:#ED1C24;}
</style>
<g>
	<polygon class="st0" points="188.3,258.3 124.2,195.8 212.8,182.9 252.5,102.6 292.2,182.9 380.8,195.8 316.7,258.3 331.8,346.7 
		252.5,305 173.2,346.7 	"/>
	<path d="M252.5,103.7l39.1,79.2l0.2,0.5l0.5,0.1l87.4,12.7l-63.3,61.7l-0.4,0.4l0.1,0.5l14.9,87.1L253,304.7l-0.5-0.2l-0.5,0.2
		l-78.2,41.1l14.9-87.1l0.1-0.5l-0.4-0.4l-63.3-61.7l87.4-12.7l0.5-0.1l0.2-0.5L252.5,103.7 M252.5,101.4l-40,81l-89.4,13l64.7,63.1
		l-15.3,89.1l80-42l80,42l-15.3-89.1l64.7-63.1l-89.4-13L252.5,101.4L252.5,101.4z"/>
</g>
</svg>
